<svg xmlns:mydata="http://www.w3.org/2000/svg" mydata:contrastcolor="ffffff" mydata:template="Contrast" mydata:presentation="2.5" mydata:layouttype="undefined" mydata:specialfontid="undefined" mydata:id1="228" mydata:id2="227" mydata:companyname="againride" mydata:companytagline="bike sharing for hospitality" version="1.1" xmlns="http://www.w3.org/2000/svg" xmlns:xlink="http://www.w3.org/1999/xlink" viewBox="0 0 550 470" style="background-color: rgb(0, 179, 152); background-image: radial-gradient(circle closest-side, rgba(255, 255, 255, 0.07) 0%, rgba(255, 255, 255, 0) 100%);"><defs style="animation-play-state: running;"><linearGradient id="fade-smooth-gradient" gradientUnits="userSpaceOnUse" x2="0" y2="0" style="animation-play-state: running;">
                <stop offset="0" stop-color="#EEEEEE" stop-opacity="1" style="animation-play-state: running;"></stop>
                <stop offset="1" stop-color="#EEEEEE" stop-opacity="0" style="animation-play-state: running;"></stop>
                <animate attributeName="x2" dur="2.5s" from="0" to="100%" values="0; 100%; 100%" repeatCount="indefinite" style="animation-play-state: running;"></animate>
            </linearGradient>          
            <mask id="fade-smooth-mask" maskUnits="userSpaceOnUse" style="animation-play-state: running;">
              <rect width="100%" height="100%" fill="url(#fade-smooth-gradient)" style="animation-play-state: running;"></rect>
            </mask></defs><g fill="#ffffff" fill-rule="nonzero" stroke="none" stroke-width="1" stroke-linecap="butt" stroke-linejoin="miter" stroke-miterlimit="10" stroke-dasharray="" stroke-dashoffset="0" font-family="none" font-weight="none" font-size="none" text-anchor="none" style="mix-blend-mode: normal; animation-play-state: running;" mask="url(#fade-smooth-mask)"><g data-paper-data="{&quot;isGlobalGroup&quot;:true,&quot;bounds&quot;:{&quot;x&quot;:65,&quot;y&quot;:190.63589467808006,&quot;width&quot;:420,&quot;height&quot;:88.7282106438399}}" style="animation-play-state: running;"><g data-paper-data="{&quot;isSecondaryText&quot;:true}" style="animation-play-state: running;"><path d="M69.91909,279.1445c2.82189,0 4.78733,-1.38349 4.78733,-4.18342c0,-1.73486 -1.19683,-3.01953 -2.72307,-3.52461c1.37251,-0.57097 2.1521,-1.69094 2.1521,-3.20619c0,-2.47052 -1.39447,-3.95284 -4.29322,-3.95284h-4.84223v14.86706zM72.77391,274.8403c0,1.77878 -1.18585,2.63523 -3.11835,2.63523h-2.70111v-5.22653h2.62425c1.89956,0 3.19521,0.80155 3.19521,2.5913zM69.76537,270.68982h-2.81091v-4.74341h2.66817c1.75682,0 2.58032,0.82351 2.58032,2.33876c0,1.49329 -0.79057,2.40464 -2.43758,2.40464z" data-paper-data="{&quot;glyphName&quot;:&quot;B&quot;,&quot;glyphIndex&quot;:0,&quot;firstGlyphOfWord&quot;:true,&quot;word&quot;:1}" style="animation-play-state: running;"></path><path d="M83.98094,264.27744h-1.95446v14.86706h1.95446z" data-paper-data="{&quot;glyphName&quot;:&quot;I&quot;,&quot;glyphIndex&quot;:1,&quot;word&quot;:1}" style="animation-play-state: running;"></path><path d="M100.0302,264.27744l-3.40383,6.50022h-2.27288v-6.50022h-1.95446v14.86706h1.95446v-6.61002h2.07524l3.72226,6.61002h2.21798l-4.23832,-7.34569l4.04068,-7.52137z" data-paper-data="{&quot;glyphName&quot;:&quot;K&quot;,&quot;glyphIndex&quot;:2,&quot;word&quot;:1}" style="animation-play-state: running;"></path><path d="M109.24982,279.1445h8.65232v-1.75682h-6.68688v-4.86419h6.2367v-1.75682h-6.2367v-4.73243h6.4563v-1.75682h-8.42174z" data-paper-data="{&quot;glyphName&quot;:&quot;E&quot;,&quot;glyphIndex&quot;:3,&quot;lastGlyphOfWord&quot;:true,&quot;word&quot;:1}" style="animation-play-state: running;"></path><path d="M143.02829,275.25755c0,-2.30582 -1.10899,-3.48069 -3.25011,-4.18342l-1.84466,-0.60391c-1.48231,-0.47214 -1.95446,-1.05409 -1.95446,-2.39366c0,-1.42741 1.08703,-2.21798 2.82189,-2.21798c1.40545,0 2.58032,0.28548 3.32697,0.53803l0.2745,-1.75682c-0.72469,-0.23058 -1.84466,-0.58195 -3.77716,-0.58195c-2.73405,0 -4.5787,1.78976 -4.5787,4.00774c0,1.85564 0.74665,3.37089 2.60228,3.96382l1.84466,0.60391c1.7129,0.55999 2.60228,1.15291 2.60228,2.65719c0,1.83368 -1.29565,2.2619 -3.25011,2.2619c-1.50427,0 -2.88777,-0.37332 -3.62343,-0.62587l-0.30744,1.74584c0.81253,0.31842 2.21798,0.69175 4.16146,0.69175c3.19521,0 4.95203,-1.39447 4.95203,-4.10656z" data-paper-data="{&quot;glyphName&quot;:&quot;S&quot;,&quot;glyphIndex&quot;:4,&quot;firstGlyphOfWord&quot;:true,&quot;word&quot;:2}" style="animation-play-state: running;"></path><path d="M161.0869,279.1445v-14.86706h-1.95446v6.50022h-6.71982v-6.50022h-1.95446v14.86706h1.95446v-6.61002h6.71982v6.61002z" data-paper-data="{&quot;glyphName&quot;:&quot;H&quot;,&quot;glyphIndex&quot;:5,&quot;word&quot;:2}" style="animation-play-state: running;"></path><path d="M180.22156,279.1445l-4.67752,-14.86706h-2.84385l-4.67752,14.86706h2.07524l1.11997,-3.67834h5.80848l1.11997,3.67834zM174.11662,265.83662l2.40464,7.92764h-4.78733z" data-paper-data="{&quot;glyphName&quot;:&quot;A&quot;,&quot;glyphIndex&quot;:6,&quot;word&quot;:2}" style="animation-play-state: running;"></path><path d="M187.15733,264.27744v14.86706h1.95446v-5.39123h2.71209l2.78895,5.39123h2.16308l-3.03051,-5.66573c1.66898,-0.53803 2.99757,-1.89956 2.99757,-4.0846v-0.77959c0,-2.88777 -2.34974,-4.33714 -4.74341,-4.33714zM191.83485,265.94642c1.7678,0 2.97561,0.93331 2.97561,2.82189v0.47214c0,1.91054 -1.20781,2.85483 -2.97561,2.85483h-2.72307v-6.14886z" data-paper-data="{&quot;glyphName&quot;:&quot;R&quot;,&quot;glyphIndex&quot;:7,&quot;word&quot;:2}" style="animation-play-state: running;"></path><path d="M206.27003,264.27744h-1.95446v14.86706h1.95446z" data-paper-data="{&quot;glyphName&quot;:&quot;I&quot;,&quot;glyphIndex&quot;:8,&quot;word&quot;:2}" style="animation-play-state: running;"></path><path d="M223.35142,279.1445h2.06426v-14.86706h-1.95446v11.45225l-6.70884,-11.45225h-2.06426v14.86706h1.95446v-11.45225z" data-paper-data="{&quot;glyphName&quot;:&quot;N&quot;,&quot;glyphIndex&quot;:9,&quot;word&quot;:2}" style="animation-play-state: running;"></path><path d="M242.90332,272.00743h-1.84466v5.25947c-0.61489,0.18666 -1.35055,0.29646 -2.17406,0.29646c-2.32778,0 -3.66736,-1.08703 -3.66736,-3.33795v-4.80929c0,-2.25092 1.40545,-3.55755 3.9199,-3.55755c1.09801,0 2.45954,0.31842 3.25011,0.61489l0.3843,-1.66898c-0.88939,-0.3843 -2.21798,-0.74665 -3.8101,-0.74665c-3.17325,0 -5.67671,1.7678 -5.67671,5.20457v5.10575c0,3.23913 2.44856,4.99595 5.32535,4.99595c1.61408,0 3.25011,-0.36234 4.29322,-0.87841z" data-paper-data="{&quot;glyphName&quot;:&quot;G&quot;,&quot;glyphIndex&quot;:10,&quot;lastGlyphOfWord&quot;:true,&quot;word&quot;:2}" style="animation-play-state: running;"></path><path d="M260.56299,279.1445h1.96544v-6.621h6.15984v-1.75682h-6.15984v-4.73243h6.37944v-1.75682h-8.34488z" data-paper-data="{&quot;glyphName&quot;:&quot;F&quot;,&quot;glyphIndex&quot;:11,&quot;firstGlyphOfWord&quot;:true,&quot;word&quot;:3}" style="animation-play-state: running;"></path><path d="M275.56914,274.37914c0,3.31599 2.50346,4.98497 5.34731,4.98497c2.84385,0 5.34731,-1.66898 5.34731,-4.98497v-5.33633c0,-3.31599 -2.50346,-4.98497 -5.34731,-4.98497c-2.84385,0 -5.34731,1.66898 -5.34731,4.98497zM277.50163,269.19653c0,-2.13014 1.22977,-3.42579 3.41481,-3.42579c2.18504,0 3.41481,1.29565 3.41481,3.42579v5.02889c0,2.13014 -1.22977,3.42579 -3.41481,3.42579c-2.18504,0 -3.41481,-1.29565 -3.41481,-3.42579z" data-paper-data="{&quot;glyphName&quot;:&quot;O&quot;,&quot;glyphIndex&quot;:12,&quot;word&quot;:3}" style="animation-play-state: running;"></path><path d="M294.13283,264.27744v14.86706h1.95446v-5.39123h2.71209l2.78895,5.39123h2.16308l-3.03051,-5.66573c1.66898,-0.53803 2.99757,-1.89956 2.99757,-4.0846v-0.77959c0,-2.88777 -2.34974,-4.33714 -4.74341,-4.33714zM298.81036,265.94642c1.7678,0 2.97561,0.93331 2.97561,2.82189v0.47214c0,1.91054 -1.20781,2.85483 -2.97561,2.85483h-2.72307v-6.14886z" data-paper-data="{&quot;glyphName&quot;:&quot;R&quot;,&quot;glyphIndex&quot;:13,&quot;lastGlyphOfWord&quot;:true,&quot;word&quot;:3}" style="animation-play-state: running;"></path><path d="M331.87511,279.1445v-14.86706h-1.95446v6.50022h-6.71982v-6.50022h-1.95446v14.86706h1.95446v-6.61002h6.71982v6.61002z" data-paper-data="{&quot;glyphName&quot;:&quot;H&quot;,&quot;glyphIndex&quot;:14,&quot;firstGlyphOfWord&quot;:true,&quot;word&quot;:4}" style="animation-play-state: running;"></path><path d="M339.74419,274.37914c0,3.31599 2.50346,4.98497 5.34731,4.98497c2.84385,0 5.34731,-1.66898 5.34731,-4.98497v-5.33633c0,-3.31599 -2.50346,-4.98497 -5.34731,-4.98497c-2.84385,0 -5.34731,1.66898 -5.34731,4.98497zM341.67669,269.19653c0,-2.13014 1.22977,-3.42579 3.41481,-3.42579c2.18504,0 3.41481,1.29565 3.41481,3.42579v5.02889c0,2.13014 -1.22977,3.42579 -3.41481,3.42579c-2.18504,0 -3.41481,-1.29565 -3.41481,-3.42579z" data-paper-data="{&quot;glyphName&quot;:&quot;O&quot;,&quot;glyphIndex&quot;:15,&quot;word&quot;:4}" style="animation-play-state: running;"></path><path d="M366.48807,275.25755c0,-2.30582 -1.10899,-3.48069 -3.25011,-4.18342l-1.84466,-0.60391c-1.48231,-0.47214 -1.95446,-1.05409 -1.95446,-2.39366c0,-1.42741 1.08703,-2.21798 2.82189,-2.21798c1.40545,0 2.58032,0.28548 3.32697,0.53803l0.2745,-1.75682c-0.72469,-0.23058 -1.84466,-0.58195 -3.77716,-0.58195c-2.73405,0 -4.5787,1.78976 -4.5787,4.00774c0,1.85564 0.74665,3.37089 2.60228,3.96382l1.84466,0.60391c1.7129,0.55999 2.60228,1.15291 2.60228,2.65719c0,1.83368 -1.29565,2.2619 -3.25011,2.2619c-1.50427,0 -2.88777,-0.37332 -3.62343,-0.62587l-0.30744,1.74584c0.81253,0.31842 2.21798,0.69175 4.16146,0.69175c3.19521,0 4.95203,-1.39447 4.95203,-4.10656z" data-paper-data="{&quot;glyphName&quot;:&quot;S&quot;,&quot;glyphIndex&quot;:16,&quot;word&quot;:4}" style="animation-play-state: running;"></path><path d="M378.65036,273.98385c2.39366,0 4.74341,-1.46035 4.74341,-4.37008v-0.99919c0,-2.88777 -2.34974,-4.33714 -4.74341,-4.33714h-4.73243v14.86706h1.95446v-5.16065zM378.48566,265.94642c1.7678,0 2.97561,0.93331 2.97561,2.82189v0.69175c0,1.91054 -1.20781,2.85483 -2.97561,2.85483h-2.61327v-6.36846z" data-paper-data="{&quot;glyphName&quot;:&quot;P&quot;,&quot;glyphIndex&quot;:17,&quot;word&quot;:4}" style="animation-play-state: running;"></path><path d="M392.7781,264.27744h-1.95446v14.86706h1.95446z" data-paper-data="{&quot;glyphName&quot;:&quot;I&quot;,&quot;glyphIndex&quot;:18,&quot;word&quot;:4}" style="animation-play-state: running;"></path><path d="M403.91924,279.1445h1.96544v-13.11025h4.26028v-1.75682h-10.486v1.75682h4.26028z" data-paper-data="{&quot;glyphName&quot;:&quot;T&quot;,&quot;glyphIndex&quot;:19,&quot;word&quot;:4}" style="animation-play-state: running;"></path><path d="M426.7542,279.1445l-4.67752,-14.86706h-2.84385l-4.67752,14.86706h2.07524l1.11997,-3.67834h5.80848l1.11997,3.67834zM420.64926,265.83662l2.40464,7.92764h-4.78733z" data-paper-data="{&quot;glyphName&quot;:&quot;A&quot;,&quot;glyphIndex&quot;:20,&quot;word&quot;:4}" style="animation-play-state: running;"></path><path d="M435.64443,264.27744h-1.95446v14.86706h8.18018v-1.75682h-6.22572z" data-paper-data="{&quot;glyphName&quot;:&quot;L&quot;,&quot;glyphIndex&quot;:21,&quot;word&quot;:4}" style="animation-play-state: running;"></path><path d="M450.81527,264.27744h-1.95446v14.86706h1.95446z" data-paper-data="{&quot;glyphName&quot;:&quot;I&quot;,&quot;glyphIndex&quot;:22,&quot;word&quot;:4}" style="animation-play-state: running;"></path><path d="M461.95642,279.1445h1.96544v-13.11025h4.26028v-1.75682h-10.486v1.75682h4.26028z" data-paper-data="{&quot;glyphName&quot;:&quot;T&quot;,&quot;glyphIndex&quot;:23,&quot;word&quot;:4}" style="animation-play-state: running;"></path><path d="M482.92476,264.27744l-3.57951,7.49941l-3.57951,-7.49941h-2.07524l4.67752,9.42093v5.44613h1.95446v-5.44613l4.67752,-9.42093z" data-paper-data="{&quot;glyphName&quot;:&quot;Y&quot;,&quot;glyphIndex&quot;:24,&quot;lastGlyphOfWord&quot;:true,&quot;word&quot;:4}" style="animation-play-state: running;"></path></g><g data-paper-data="{&quot;isPrimaryText&quot;:true}" style="animation-play-state: running;"><path d="M118.31641,251.68318l-17.19454,-60.15868h-18.88289l-17.23897,60.15868h14.08442l3.33228,-12.84037h18.48302l3.33228,12.84037zM91.6582,201.56576l7.06442,26.92479h-14.08442z" data-paper-data="{&quot;glyphName&quot;:&quot;A&quot;,&quot;glyphIndex&quot;:0,&quot;firstGlyphOfWord&quot;:true,&quot;word&quot;:1}" style="animation-play-state: running;"></path><path d="M164.70168,221.55941h-11.59632v19.3272c-1.73278,0.48873 -3.68772,0.75532 -5.95367,0.75532c-6.97556,0 -11.06315,-3.33228 -11.06315,-10.21898v-18.52745c0,-6.97556 4.84291,-11.06315 13.06252,-11.06315c4.79848,0 9.81911,1.24405 12.48493,2.17709l1.99937,-10.61885c-3.02126,-1.19962 -8.79721,-2.75468 -15.86163,-2.75468c-14.30657,0 -24.92542,7.28658 -24.92542,21.50428v19.68264c0,13.68454 9.90797,20.74897 22.83719,20.74897c7.37544,0 14.61758,-1.51063 19.01619,-3.37671z" data-paper-data="{&quot;glyphName&quot;:&quot;G&quot;,&quot;glyphIndex&quot;:1,&quot;word&quot;:1}" style="animation-play-state: running;"></path><path d="M224.99365,251.68318l-17.19454,-60.15868h-18.88289l-17.23897,60.15868h14.08442l3.33228,-12.84037h18.48302l3.33228,12.84037zM198.33545,201.56576l7.06442,26.92479h-14.08442z" data-paper-data="{&quot;glyphName&quot;:&quot;A&quot;,&quot;glyphIndex&quot;:2,&quot;word&quot;:1}" style="animation-play-state: running;"></path><path d="M245.03174,191.5245h-13.19581v60.15868h13.19581z" data-paper-data="{&quot;glyphName&quot;:&quot;I&quot;,&quot;glyphIndex&quot;:3,&quot;word&quot;:1}" style="animation-play-state: running;"></path><path d="M290.39511,251.68318h13.15138v-60.15868h-12.8848v38.25452l-20.74897,-38.25452h-13.15138v60.15868h12.8848v-38.25452z" data-paper-data="{&quot;glyphName&quot;:&quot;N&quot;,&quot;glyphIndex&quot;:4,&quot;word&quot;:1}" style="animation-play-state: running;"></path><path d="M315.2761,191.5245v60.15868h13.19581v-19.3272h7.4643l9.24151,19.3272h14.26214l-11.19645,-21.63758c5.95367,-2.62139 10.17455,-7.9086 10.17455,-16.03935v-3.86544c0,-12.21834 -9.01936,-18.61631 -21.45985,-18.61631zM336.55824,201.9212c5.28721,0 8.70835,2.84354 8.70835,8.13075v4.08759c0,5.33164 -3.42114,8.21961 -8.70835,8.21961h-8.08632v-20.43796z" data-paper-data="{&quot;glyphName&quot;:&quot;R&quot;,&quot;glyphIndex&quot;:5,&quot;word&quot;:1}" style="animation-play-state: running;"></path><path d="M381.03301,191.5245h-13.19581v60.15868h13.19581z" data-paper-data="{&quot;glyphName&quot;:&quot;I&quot;,&quot;glyphIndex&quot;:6,&quot;word&quot;:1}" style="animation-play-state: running;"></path><path d="M392.76262,251.68318h21.50428c13.41796,0 22.83719,-6.04253 22.83719,-19.37163v-21.05998c0,-12.26277 -9.41923,-19.72707 -22.83719,-19.72707h-21.50428zM423.86385,232.13383c0,5.73151 -3.46557,9.15265 -10.17455,9.15265h-7.73088v-39.36528h7.73088c7.59759,0 10.17455,5.82037 10.17455,11.59632z" data-paper-data="{&quot;glyphName&quot;:&quot;D&quot;,&quot;glyphIndex&quot;:7,&quot;word&quot;:1}" style="animation-play-state: running;"></path><path d="M446.96763,251.68318h38.03237v-11.15202h-24.79213v-13.86227h22.97049v-10.44113h-22.97049v-13.55125h23.85909v-11.15202h-37.09933z" data-paper-data="{&quot;glyphName&quot;:&quot;E&quot;,&quot;glyphIndex&quot;:8,&quot;lastGlyphOfWord&quot;:true,&quot;word&quot;:1}" style="animation-play-state: running;"></path></g></g></g><g fill="#ffffff" fill-rule="nonzero" stroke="none" stroke-width="1" stroke-linecap="butt" stroke-linejoin="miter" stroke-miterlimit="10" stroke-dasharray="" stroke-dashoffset="0" font-family="none" font-weight="none" font-size="none" text-anchor="none" style="mix-blend-mode: normal; animation-play-state: running;" opacity="0"><g data-paper-data="{&quot;isGlobalGroup&quot;:true,&quot;bounds&quot;:{&quot;x&quot;:65,&quot;y&quot;:190.63589467808006,&quot;width&quot;:420,&quot;height&quot;:88.7282106438399}}" style="animation-play-state: running;"><g data-paper-data="{&quot;isSecondaryText&quot;:true}" style="animation-play-state: running;"><path d="M69.91909,279.1445c2.82189,0 4.78733,-1.38349 4.78733,-4.18342c0,-1.73486 -1.19683,-3.01953 -2.72307,-3.52461c1.37251,-0.57097 2.1521,-1.69094 2.1521,-3.20619c0,-2.47052 -1.39447,-3.95284 -4.29322,-3.95284h-4.84223v14.86706zM72.77391,274.8403c0,1.77878 -1.18585,2.63523 -3.11835,2.63523h-2.70111v-5.22653h2.62425c1.89956,0 3.19521,0.80155 3.19521,2.5913zM69.76537,270.68982h-2.81091v-4.74341h2.66817c1.75682,0 2.58032,0.82351 2.58032,2.33876c0,1.49329 -0.79057,2.40464 -2.43758,2.40464z" data-paper-data="{&quot;glyphName&quot;:&quot;B&quot;,&quot;glyphIndex&quot;:0,&quot;firstGlyphOfWord&quot;:true,&quot;word&quot;:1}" style="animation-play-state: running;"></path><path d="M83.98094,264.27744h-1.95446v14.86706h1.95446z" data-paper-data="{&quot;glyphName&quot;:&quot;I&quot;,&quot;glyphIndex&quot;:1,&quot;word&quot;:1}" style="animation-play-state: running;"></path><path d="M100.0302,264.27744l-3.40383,6.50022h-2.27288v-6.50022h-1.95446v14.86706h1.95446v-6.61002h2.07524l3.72226,6.61002h2.21798l-4.23832,-7.34569l4.04068,-7.52137z" data-paper-data="{&quot;glyphName&quot;:&quot;K&quot;,&quot;glyphIndex&quot;:2,&quot;word&quot;:1}" style="animation-play-state: running;"></path><path d="M109.24982,279.1445h8.65232v-1.75682h-6.68688v-4.86419h6.2367v-1.75682h-6.2367v-4.73243h6.4563v-1.75682h-8.42174z" data-paper-data="{&quot;glyphName&quot;:&quot;E&quot;,&quot;glyphIndex&quot;:3,&quot;lastGlyphOfWord&quot;:true,&quot;word&quot;:1}" style="animation-play-state: running;"></path><path d="M143.02829,275.25755c0,-2.30582 -1.10899,-3.48069 -3.25011,-4.18342l-1.84466,-0.60391c-1.48231,-0.47214 -1.95446,-1.05409 -1.95446,-2.39366c0,-1.42741 1.08703,-2.21798 2.82189,-2.21798c1.40545,0 2.58032,0.28548 3.32697,0.53803l0.2745,-1.75682c-0.72469,-0.23058 -1.84466,-0.58195 -3.77716,-0.58195c-2.73405,0 -4.5787,1.78976 -4.5787,4.00774c0,1.85564 0.74665,3.37089 2.60228,3.96382l1.84466,0.60391c1.7129,0.55999 2.60228,1.15291 2.60228,2.65719c0,1.83368 -1.29565,2.2619 -3.25011,2.2619c-1.50427,0 -2.88777,-0.37332 -3.62343,-0.62587l-0.30744,1.74584c0.81253,0.31842 2.21798,0.69175 4.16146,0.69175c3.19521,0 4.95203,-1.39447 4.95203,-4.10656z" data-paper-data="{&quot;glyphName&quot;:&quot;S&quot;,&quot;glyphIndex&quot;:4,&quot;firstGlyphOfWord&quot;:true,&quot;word&quot;:2}" style="animation-play-state: running;"></path><path d="M161.0869,279.1445v-14.86706h-1.95446v6.50022h-6.71982v-6.50022h-1.95446v14.86706h1.95446v-6.61002h6.71982v6.61002z" data-paper-data="{&quot;glyphName&quot;:&quot;H&quot;,&quot;glyphIndex&quot;:5,&quot;word&quot;:2}" style="animation-play-state: running;"></path><path d="M180.22156,279.1445l-4.67752,-14.86706h-2.84385l-4.67752,14.86706h2.07524l1.11997,-3.67834h5.80848l1.11997,3.67834zM174.11662,265.83662l2.40464,7.92764h-4.78733z" data-paper-data="{&quot;glyphName&quot;:&quot;A&quot;,&quot;glyphIndex&quot;:6,&quot;word&quot;:2}" style="animation-play-state: running;"></path><path d="M187.15733,264.27744v14.86706h1.95446v-5.39123h2.71209l2.78895,5.39123h2.16308l-3.03051,-5.66573c1.66898,-0.53803 2.99757,-1.89956 2.99757,-4.0846v-0.77959c0,-2.88777 -2.34974,-4.33714 -4.74341,-4.33714zM191.83485,265.94642c1.7678,0 2.97561,0.93331 2.97561,2.82189v0.47214c0,1.91054 -1.20781,2.85483 -2.97561,2.85483h-2.72307v-6.14886z" data-paper-data="{&quot;glyphName&quot;:&quot;R&quot;,&quot;glyphIndex&quot;:7,&quot;word&quot;:2}" style="animation-play-state: running;"></path><path d="M206.27003,264.27744h-1.95446v14.86706h1.95446z" data-paper-data="{&quot;glyphName&quot;:&quot;I&quot;,&quot;glyphIndex&quot;:8,&quot;word&quot;:2}" style="animation-play-state: running;"></path><path d="M223.35142,279.1445h2.06426v-14.86706h-1.95446v11.45225l-6.70884,-11.45225h-2.06426v14.86706h1.95446v-11.45225z" data-paper-data="{&quot;glyphName&quot;:&quot;N&quot;,&quot;glyphIndex&quot;:9,&quot;word&quot;:2}" style="animation-play-state: running;"></path><path d="M242.90332,272.00743h-1.84466v5.25947c-0.61489,0.18666 -1.35055,0.29646 -2.17406,0.29646c-2.32778,0 -3.66736,-1.08703 -3.66736,-3.33795v-4.80929c0,-2.25092 1.40545,-3.55755 3.9199,-3.55755c1.09801,0 2.45954,0.31842 3.25011,0.61489l0.3843,-1.66898c-0.88939,-0.3843 -2.21798,-0.74665 -3.8101,-0.74665c-3.17325,0 -5.67671,1.7678 -5.67671,5.20457v5.10575c0,3.23913 2.44856,4.99595 5.32535,4.99595c1.61408,0 3.25011,-0.36234 4.29322,-0.87841z" data-paper-data="{&quot;glyphName&quot;:&quot;G&quot;,&quot;glyphIndex&quot;:10,&quot;lastGlyphOfWord&quot;:true,&quot;word&quot;:2}" style="animation-play-state: running;"></path><path d="M260.56299,279.1445h1.96544v-6.621h6.15984v-1.75682h-6.15984v-4.73243h6.37944v-1.75682h-8.34488z" data-paper-data="{&quot;glyphName&quot;:&quot;F&quot;,&quot;glyphIndex&quot;:11,&quot;firstGlyphOfWord&quot;:true,&quot;word&quot;:3}" style="animation-play-state: running;"></path><path d="M275.56914,274.37914c0,3.31599 2.50346,4.98497 5.34731,4.98497c2.84385,0 5.34731,-1.66898 5.34731,-4.98497v-5.33633c0,-3.31599 -2.50346,-4.98497 -5.34731,-4.98497c-2.84385,0 -5.34731,1.66898 -5.34731,4.98497zM277.50163,269.19653c0,-2.13014 1.22977,-3.42579 3.41481,-3.42579c2.18504,0 3.41481,1.29565 3.41481,3.42579v5.02889c0,2.13014 -1.22977,3.42579 -3.41481,3.42579c-2.18504,0 -3.41481,-1.29565 -3.41481,-3.42579z" data-paper-data="{&quot;glyphName&quot;:&quot;O&quot;,&quot;glyphIndex&quot;:12,&quot;word&quot;:3}" style="animation-play-state: running;"></path><path d="M294.13283,264.27744v14.86706h1.95446v-5.39123h2.71209l2.78895,5.39123h2.16308l-3.03051,-5.66573c1.66898,-0.53803 2.99757,-1.89956 2.99757,-4.0846v-0.77959c0,-2.88777 -2.34974,-4.33714 -4.74341,-4.33714zM298.81036,265.94642c1.7678,0 2.97561,0.93331 2.97561,2.82189v0.47214c0,1.91054 -1.20781,2.85483 -2.97561,2.85483h-2.72307v-6.14886z" data-paper-data="{&quot;glyphName&quot;:&quot;R&quot;,&quot;glyphIndex&quot;:13,&quot;lastGlyphOfWord&quot;:true,&quot;word&quot;:3}" style="animation-play-state: running;"></path><path d="M331.87511,279.1445v-14.86706h-1.95446v6.50022h-6.71982v-6.50022h-1.95446v14.86706h1.95446v-6.61002h6.71982v6.61002z" data-paper-data="{&quot;glyphName&quot;:&quot;H&quot;,&quot;glyphIndex&quot;:14,&quot;firstGlyphOfWord&quot;:true,&quot;word&quot;:4}" style="animation-play-state: running;"></path><path d="M339.74419,274.37914c0,3.31599 2.50346,4.98497 5.34731,4.98497c2.84385,0 5.34731,-1.66898 5.34731,-4.98497v-5.33633c0,-3.31599 -2.50346,-4.98497 -5.34731,-4.98497c-2.84385,0 -5.34731,1.66898 -5.34731,4.98497zM341.67669,269.19653c0,-2.13014 1.22977,-3.42579 3.41481,-3.42579c2.18504,0 3.41481,1.29565 3.41481,3.42579v5.02889c0,2.13014 -1.22977,3.42579 -3.41481,3.42579c-2.18504,0 -3.41481,-1.29565 -3.41481,-3.42579z" data-paper-data="{&quot;glyphName&quot;:&quot;O&quot;,&quot;glyphIndex&quot;:15,&quot;word&quot;:4}" style="animation-play-state: running;"></path><path d="M366.48807,275.25755c0,-2.30582 -1.10899,-3.48069 -3.25011,-4.18342l-1.84466,-0.60391c-1.48231,-0.47214 -1.95446,-1.05409 -1.95446,-2.39366c0,-1.42741 1.08703,-2.21798 2.82189,-2.21798c1.40545,0 2.58032,0.28548 3.32697,0.53803l0.2745,-1.75682c-0.72469,-0.23058 -1.84466,-0.58195 -3.77716,-0.58195c-2.73405,0 -4.5787,1.78976 -4.5787,4.00774c0,1.85564 0.74665,3.37089 2.60228,3.96382l1.84466,0.60391c1.7129,0.55999 2.60228,1.15291 2.60228,2.65719c0,1.83368 -1.29565,2.2619 -3.25011,2.2619c-1.50427,0 -2.88777,-0.37332 -3.62343,-0.62587l-0.30744,1.74584c0.81253,0.31842 2.21798,0.69175 4.16146,0.69175c3.19521,0 4.95203,-1.39447 4.95203,-4.10656z" data-paper-data="{&quot;glyphName&quot;:&quot;S&quot;,&quot;glyphIndex&quot;:16,&quot;word&quot;:4}" style="animation-play-state: running;"></path><path d="M378.65036,273.98385c2.39366,0 4.74341,-1.46035 4.74341,-4.37008v-0.99919c0,-2.88777 -2.34974,-4.33714 -4.74341,-4.33714h-4.73243v14.86706h1.95446v-5.16065zM378.48566,265.94642c1.7678,0 2.97561,0.93331 2.97561,2.82189v0.69175c0,1.91054 -1.20781,2.85483 -2.97561,2.85483h-2.61327v-6.36846z" data-paper-data="{&quot;glyphName&quot;:&quot;P&quot;,&quot;glyphIndex&quot;:17,&quot;word&quot;:4}" style="animation-play-state: running;"></path><path d="M392.7781,264.27744h-1.95446v14.86706h1.95446z" data-paper-data="{&quot;glyphName&quot;:&quot;I&quot;,&quot;glyphIndex&quot;:18,&quot;word&quot;:4}" style="animation-play-state: running;"></path><path d="M403.91924,279.1445h1.96544v-13.11025h4.26028v-1.75682h-10.486v1.75682h4.26028z" data-paper-data="{&quot;glyphName&quot;:&quot;T&quot;,&quot;glyphIndex&quot;:19,&quot;word&quot;:4}" style="animation-play-state: running;"></path><path d="M426.7542,279.1445l-4.67752,-14.86706h-2.84385l-4.67752,14.86706h2.07524l1.11997,-3.67834h5.80848l1.11997,3.67834zM420.64926,265.83662l2.40464,7.92764h-4.78733z" data-paper-data="{&quot;glyphName&quot;:&quot;A&quot;,&quot;glyphIndex&quot;:20,&quot;word&quot;:4}" style="animation-play-state: running;"></path><path d="M435.64443,264.27744h-1.95446v14.86706h8.18018v-1.75682h-6.22572z" data-paper-data="{&quot;glyphName&quot;:&quot;L&quot;,&quot;glyphIndex&quot;:21,&quot;word&quot;:4}" style="animation-play-state: running;"></path><path d="M450.81527,264.27744h-1.95446v14.86706h1.95446z" data-paper-data="{&quot;glyphName&quot;:&quot;I&quot;,&quot;glyphIndex&quot;:22,&quot;word&quot;:4}" style="animation-play-state: running;"></path><path d="M461.95642,279.1445h1.96544v-13.11025h4.26028v-1.75682h-10.486v1.75682h4.26028z" data-paper-data="{&quot;glyphName&quot;:&quot;T&quot;,&quot;glyphIndex&quot;:23,&quot;word&quot;:4}" style="animation-play-state: running;"></path><path d="M482.92476,264.27744l-3.57951,7.49941l-3.57951,-7.49941h-2.07524l4.67752,9.42093v5.44613h1.95446v-5.44613l4.67752,-9.42093z" data-paper-data="{&quot;glyphName&quot;:&quot;Y&quot;,&quot;glyphIndex&quot;:24,&quot;lastGlyphOfWord&quot;:true,&quot;word&quot;:4}" style="animation-play-state: running;"></path></g><g data-paper-data="{&quot;isPrimaryText&quot;:true}" style="animation-play-state: running;"><path d="M118.31641,251.68318l-17.19454,-60.15868h-18.88289l-17.23897,60.15868h14.08442l3.33228,-12.84037h18.48302l3.33228,12.84037zM91.6582,201.56576l7.06442,26.92479h-14.08442z" data-paper-data="{&quot;glyphName&quot;:&quot;A&quot;,&quot;glyphIndex&quot;:0,&quot;firstGlyphOfWord&quot;:true,&quot;word&quot;:1}" style="animation-play-state: running;"></path><path d="M164.70168,221.55941h-11.59632v19.3272c-1.73278,0.48873 -3.68772,0.75532 -5.95367,0.75532c-6.97556,0 -11.06315,-3.33228 -11.06315,-10.21898v-18.52745c0,-6.97556 4.84291,-11.06315 13.06252,-11.06315c4.79848,0 9.81911,1.24405 12.48493,2.17709l1.99937,-10.61885c-3.02126,-1.19962 -8.79721,-2.75468 -15.86163,-2.75468c-14.30657,0 -24.92542,7.28658 -24.92542,21.50428v19.68264c0,13.68454 9.90797,20.74897 22.83719,20.74897c7.37544,0 14.61758,-1.51063 19.01619,-3.37671z" data-paper-data="{&quot;glyphName&quot;:&quot;G&quot;,&quot;glyphIndex&quot;:1,&quot;word&quot;:1}" style="animation-play-state: running;"></path><path d="M224.99365,251.68318l-17.19454,-60.15868h-18.88289l-17.23897,60.15868h14.08442l3.33228,-12.84037h18.48302l3.33228,12.84037zM198.33545,201.56576l7.06442,26.92479h-14.08442z" data-paper-data="{&quot;glyphName&quot;:&quot;A&quot;,&quot;glyphIndex&quot;:2,&quot;word&quot;:1}" style="animation-play-state: running;"></path><path d="M245.03174,191.5245h-13.19581v60.15868h13.19581z" data-paper-data="{&quot;glyphName&quot;:&quot;I&quot;,&quot;glyphIndex&quot;:3,&quot;word&quot;:1}" style="animation-play-state: running;"></path><path d="M290.39511,251.68318h13.15138v-60.15868h-12.8848v38.25452l-20.74897,-38.25452h-13.15138v60.15868h12.8848v-38.25452z" data-paper-data="{&quot;glyphName&quot;:&quot;N&quot;,&quot;glyphIndex&quot;:4,&quot;word&quot;:1}" style="animation-play-state: running;"></path><path d="M315.2761,191.5245v60.15868h13.19581v-19.3272h7.4643l9.24151,19.3272h14.26214l-11.19645,-21.63758c5.95367,-2.62139 10.17455,-7.9086 10.17455,-16.03935v-3.86544c0,-12.21834 -9.01936,-18.61631 -21.45985,-18.61631zM336.55824,201.9212c5.28721,0 8.70835,2.84354 8.70835,8.13075v4.08759c0,5.33164 -3.42114,8.21961 -8.70835,8.21961h-8.08632v-20.43796z" data-paper-data="{&quot;glyphName&quot;:&quot;R&quot;,&quot;glyphIndex&quot;:5,&quot;word&quot;:1}" style="animation-play-state: running;"></path><path d="M381.03301,191.5245h-13.19581v60.15868h13.19581z" data-paper-data="{&quot;glyphName&quot;:&quot;I&quot;,&quot;glyphIndex&quot;:6,&quot;word&quot;:1}" style="animation-play-state: running;"></path><path d="M392.76262,251.68318h21.50428c13.41796,0 22.83719,-6.04253 22.83719,-19.37163v-21.05998c0,-12.26277 -9.41923,-19.72707 -22.83719,-19.72707h-21.50428zM423.86385,232.13383c0,5.73151 -3.46557,9.15265 -10.17455,9.15265h-7.73088v-39.36528h7.73088c7.59759,0 10.17455,5.82037 10.17455,11.59632z" data-paper-data="{&quot;glyphName&quot;:&quot;D&quot;,&quot;glyphIndex&quot;:7,&quot;word&quot;:1}" style="animation-play-state: running;"></path><path d="M446.96763,251.68318h38.03237v-11.15202h-24.79213v-13.86227h22.97049v-10.44113h-22.97049v-13.55125h23.85909v-11.15202h-37.09933z" data-paper-data="{&quot;glyphName&quot;:&quot;E&quot;,&quot;glyphIndex&quot;:8,&quot;lastGlyphOfWord&quot;:true,&quot;word&quot;:1}" style="animation-play-state: running;"></path></g></g></g></svg>
